<svg id="Isolation_Mode" data-name="Isolation Mode" xmlns="http://www.w3.org/2000/svg" viewBox="0 0 255.92 255.92"><title>slack</title><path d="M166,15.84A22.8,22.8,0,1,0,122.6,29.93l58.95,181.37a22.8,22.8,0,0,0,27.73,14.13c12.1-3.48,19.47-16.33,15.61-28.22L166,15.84" transform="translate(0 -0.08)" style="fill:#79cce8"/><path d="M74.63,45.52A22.8,22.8,0,1,0,31.26,59.61L90.21,241a22.79,22.79,0,0,0,27.73,14.13c12.1-3.48,19.47-16.33,15.61-28.22L74.63,45.52" transform="translate(0 -0.08)" style="fill:#79cce8"/><path d="M240.16,166a22.8,22.8,0,0,0-14.09-43.36L44.71,181.63a22.79,22.79,0,0,0-14.13,27.73c3.48,12.1,16.33,19.47,28.22,15.61L240.16,166" transform="translate(0 -0.08)" style="fill:#79cce8"/><path d="M82.51,217.27l43.35-14.08-14.09-43.35L68.42,173.92l14.09,43.35" transform="translate(0 -0.08)" style="fill:#79cce8"/><path d="M173.85,187.59l43.35-14.08-14.09-43.36-43.35,14.09,14.09,43.35" transform="translate(0 -0.08)" style="fill:#79cce8"/><path d="M210.48,74.71a22.8,22.8,0,1,0-14.09-43.36L15,90.29A22.79,22.79,0,0,0,.9,118c3.48,12.1,16.33,19.47,28.22,15.61L210.48,74.71" transform="translate(0 -0.08)" style="fill:#79cce8"/><path d="M52.82,125.93l43.35-14.09L82.09,68.49,38.73,82.59l14.09,43.35" transform="translate(0 -0.08)" style="fill:#79cce8"/><path d="M144.16,96.26l43.36-14.09L173.43,38.81,130.07,52.9l14.09,43.36" transform="translate(0 -0.08)" style="fill:#79cce8"/></svg>